<!-- icon666.com - MILLIONS vector ICONS FREE --><svg viewBox="-76 0 512 512" xmlns="http://www.w3.org/2000/svg"><path d="m357.910156 392.46875-45.292968-90.585938c-3.292969-6.582031-9.921876-10.792968-17.242188-11.03125v-174.851562h12.324219c11.042969 0 20-8.953125 20-20v-76c0-11.046875-8.957031-20-20-20h-255.355469c-11.046875 0-20 8.953125-20 20v76c0 11.046875 8.953125 20 20 20h12.324219v174.851562c-7.320313.238282-13.953125 4.449219-17.242188 11.03125l-45.292969 90.585938c-6.636718 13.273438 3.023438 28.945312 17.886719 28.945312h140v70.585938c0 11.046875 8.953125 20 20 20s20-8.953125 20-20v-70.585938h140c14.839844 0 24.535157-15.648437 17.890625-28.945312zm-285.566406-352.46875h215.355469v36c-7.5 0-203.234375 0-215.355469 0zm183.03125 76v174.828125h-150.707031v-174.828125zm-202.992188 265.414062 25.292969-50.585937h204.691407l25.292968 50.585937zm0 0"></path></svg>