<svg version="1.1" xmlns="http://www.w3.org/2000/svg" xmlns:xlink="http://www.w3.org/1999/xlink" width="512px" height="512px" viewBox="0,0,256,256"><g fill="#ff0000" fill-rule="nonzero" stroke="none" stroke-width="1" stroke-linecap="butt" stroke-linejoin="miter" stroke-miterlimit="10" stroke-dasharray="" stroke-dashoffset="0" font-family="none" font-weight="none" font-size="none" text-anchor="none" style="mix-blend-mode: normal"><g transform="translate(37.98926,0) scale(0.5,0.5)"><path d="M357.91016,392.46875l-45.29297,-90.58594c-3.29297,-6.58203 -9.92188,-10.79297 -17.24219,-11.03125v-174.85156h12.32422c11.04297,0 20,-8.95312 20,-20v-76c0,-11.04687 -8.95703,-20 -20,-20h-255.35547c-11.04687,0 -20,8.95313 -20,20v76c0,11.04688 8.95313,20 20,20h12.32422v174.85156c-7.32031,0.23828 -13.95312,4.44922 -17.24219,11.03125l-45.29297,90.58594c-6.63672,13.27344 3.02344,28.94531 17.88672,28.94531h140v70.58594c0,11.04688 8.95313,20 20,20c11.04688,0 20,-8.95312 20,-20v-70.58594h140c14.83984,0 24.53516,-15.64844 17.89063,-28.94531zM72.34375,40h215.35547v36c-7.5,0 -203.23437,0 -215.35547,0zM255.375,116v174.82813h-150.70703v-174.82812zM52.38281,381.41406l25.29297,-50.58594h204.69141l25.29297,50.58594zM52.38281,381.41406"></path></g></g></svg>